<svg width="48" height="48" viewBox="0 0 48 48" fill="none" xmlns="http://www.w3.org/2000/svg">
<path d="M33.9408 29.8679H31.7958L31.0355 29.1348C33.6965 26.0394 35.2985 22.0208 35.2985 17.6492C35.2985 7.90142 27.397 0 17.6492 0C7.90142 0 0 7.90142 0 17.6492C0 27.397 7.90142 35.2985 17.6492 35.2985C22.0208 35.2985 26.0394 33.6965 29.1348 31.0355L29.8679 31.7958V33.9408L43.4443 47.49L47.49 43.4443L33.9408 29.8679ZM17.6492 29.8679C10.8882 29.8679 5.43053 24.4102 5.43053 17.6492C5.43053 10.8882 10.8882 5.43053 17.6492 5.43053C24.4102 5.43053 29.8679 10.8882 29.8679 17.6492C29.8679 24.4102 24.4102 29.8679 17.6492 29.8679ZM19.0069 10.8611H16.2916V16.2916H10.8611V19.0069H16.2916V24.4374H19.0069V19.0069H24.4374V16.2916H19.0069V10.8611Z" fill="white"/>
</svg>
