<svg width="93" height="20" viewBox="0 0 93 20" fill="none" xmlns="http://www.w3.org/2000/svg">
<path d="M0.517045 19H4.20739V13.3409H7.30966C11.3239 13.3409 13.6591 10.946 13.6591 7.46023C13.6591 3.99148 11.3665 1.54545 7.40341 1.54545H0.517045V19ZM4.20739 10.3835V4.5625H6.69602C8.8267 4.5625 9.85795 5.72159 9.85795 7.46023C9.85795 9.19034 8.8267 10.3835 6.71307 10.3835H4.20739ZM15.9879 19H19.6186V11.5938C19.6186 9.98295 20.7947 8.875 22.397 8.875C22.8999 8.875 23.5902 8.96023 23.9311 9.07102V5.84943C23.6072 5.77273 23.1555 5.72159 22.7891 5.72159C21.3232 5.72159 20.1214 6.57386 19.6442 8.19318H19.5078V5.90909H15.9879V19ZM31.1648 19.2557C34.4034 19.2557 36.5852 17.679 37.0966 15.25L33.7386 15.0284C33.3722 16.0256 32.4347 16.5455 31.2244 16.5455C29.4091 16.5455 28.2585 15.3438 28.2585 13.392V13.3835H37.1733V12.3864C37.1733 7.9375 34.4801 5.73864 31.0199 5.73864C27.1676 5.73864 24.6705 8.47443 24.6705 12.5142C24.6705 16.6648 27.1335 19.2557 31.1648 19.2557ZM28.2585 11.1335C28.3352 9.64205 29.4688 8.44886 31.0795 8.44886C32.6562 8.44886 33.7472 9.57386 33.7557 11.1335H28.2585ZM51.3722 5.90909H47.5284L44.8182 15.2756H44.6818L41.9631 5.90909H38.1278L42.7045 19H46.7955L51.3722 5.90909ZM53.2301 19H56.8608V5.90909H53.2301V19ZM55.054 4.22159C56.1364 4.22159 57.0227 3.39489 57.0227 2.38068C57.0227 1.375 56.1364 0.548295 55.054 0.548295C53.9801 0.548295 53.0938 1.375 53.0938 2.38068C53.0938 3.39489 53.9801 4.22159 55.054 4.22159ZM65.7351 19.2557C68.9737 19.2557 71.1555 17.679 71.6669 15.25L68.3089 15.0284C67.9425 16.0256 67.005 16.5455 65.7947 16.5455C63.9794 16.5455 62.8288 15.3438 62.8288 13.392V13.3835H71.7436V12.3864C71.7436 7.9375 69.0504 5.73864 65.5902 5.73864C61.7379 5.73864 59.2408 8.47443 59.2408 12.5142C59.2408 16.6648 61.7038 19.2557 65.7351 19.2557ZM62.8288 11.1335C62.9055 9.64205 64.0391 8.44886 65.6499 8.44886C67.2266 8.44886 68.3175 9.57386 68.326 11.1335H62.8288ZM76.6016 19H80.4368L82.6868 10.767H82.8487L85.0987 19H88.9425L92.4964 5.90909H88.8317L86.8374 14.6534H86.7266L84.5788 5.90909H80.9737L78.8601 14.7045H78.7408L76.7124 5.90909H73.0391L76.6016 19Z" fill="white"/>
</svg>
