<svg width="94" height="105" viewBox="0 0 94 105" fill="none" xmlns="http://www.w3.org/2000/svg">
<path d="M1.51705 84H5.20739V78.3409H8.30966C12.3239 78.3409 14.6591 75.946 14.6591 72.4602C14.6591 68.9915 12.3665 66.5455 8.40341 66.5455H1.51705V84ZM5.20739 75.3835V69.5625H7.69602C9.8267 69.5625 10.858 70.7216 10.858 72.4602C10.858 74.1903 9.8267 75.3835 7.71307 75.3835H5.20739ZM16.9879 84H20.6186V76.5938C20.6186 74.983 21.7947 73.875 23.397 73.875C23.8999 73.875 24.5902 73.9602 24.9311 74.071V70.8494C24.6072 70.7727 24.1555 70.7216 23.7891 70.7216C22.3232 70.7216 21.1214 71.5739 20.6442 73.1932H20.5078V70.9091H16.9879V84ZM32.1648 84.2557C35.4034 84.2557 37.5852 82.679 38.0966 80.25L34.7386 80.0284C34.3722 81.0256 33.4347 81.5455 32.2244 81.5455C30.4091 81.5455 29.2585 80.3438 29.2585 78.392V78.3835H38.1733V77.3864C38.1733 72.9375 35.4801 70.7386 32.0199 70.7386C28.1676 70.7386 25.6705 73.4744 25.6705 77.5142C25.6705 81.6648 28.1335 84.2557 32.1648 84.2557ZM29.2585 76.1335C29.3352 74.642 30.4688 73.4489 32.0795 73.4489C33.6562 73.4489 34.7472 74.5739 34.7557 76.1335H29.2585ZM52.3722 70.9091H48.5284L45.8182 80.2756H45.6818L42.9631 70.9091H39.1278L43.7045 84H47.7955L52.3722 70.9091ZM54.2301 84H57.8608V70.9091H54.2301V84ZM56.054 69.2216C57.1364 69.2216 58.0227 68.3949 58.0227 67.3807C58.0227 66.375 57.1364 65.5483 56.054 65.5483C54.9801 65.5483 54.0938 66.375 54.0938 67.3807C54.0938 68.3949 54.9801 69.2216 56.054 69.2216ZM66.7351 84.2557C69.9737 84.2557 72.1555 82.679 72.6669 80.25L69.3089 80.0284C68.9425 81.0256 68.005 81.5455 66.7947 81.5455C64.9794 81.5455 63.8288 80.3438 63.8288 78.392V78.3835H72.7436V77.3864C72.7436 72.9375 70.0504 70.7386 66.5902 70.7386C62.7379 70.7386 60.2408 73.4744 60.2408 77.5142C60.2408 81.6648 62.7038 84.2557 66.7351 84.2557ZM63.8288 76.1335C63.9055 74.642 65.0391 73.4489 66.6499 73.4489C68.2266 73.4489 69.3175 74.5739 69.326 76.1335H63.8288ZM77.6016 84H81.4368L83.6868 75.767H83.8487L86.0987 84H89.9425L93.4964 70.9091H89.8317L87.8374 79.6534H87.7266L85.5788 70.9091H81.9737L79.8601 79.7045H79.7408L77.7124 70.9091H74.0391L77.6016 84Z" fill="white"/>
<path d="M56.9408 29.8679H54.7958L54.0355 29.1348C56.6965 26.0394 58.2985 22.0208 58.2985 17.6492C58.2985 7.90142 50.397 0 40.6492 0C30.9014 0 23 7.90142 23 17.6492C23 27.397 30.9014 35.2985 40.6492 35.2985C45.0208 35.2985 49.0394 33.6965 52.1348 31.0355L52.8679 31.7958V33.9408L66.4443 47.49L70.49 43.4443L56.9408 29.8679V29.8679ZM40.6492 29.8679C33.8882 29.8679 28.4305 24.4102 28.4305 17.6492C28.4305 10.8882 33.8882 5.43053 40.6492 5.43053C47.4102 5.43053 52.8679 10.8882 52.8679 17.6492C52.8679 24.4102 47.4102 29.8679 40.6492 29.8679ZM42.0069 10.8611H39.2916V16.2916H33.8611V19.0069H39.2916V24.4374H42.0069V19.0069H47.4374V16.2916H42.0069V10.8611Z" fill="white"/>
</svg>
